# xmcd CD database file
#
# Track frame offsets:
#	150
#	14557
#	33162
#	43465
#	52657
#	74342
#	88550
#	120027
#	127402
#	141185
#	161950
#	183602
#
# Disc length: 2536 seconds
#
# Revision: 12
# Processed by: cddbd v1.5.2PL0 Copyright (c) Steve Scherf et al.
# Submitted via: CDex 2.21
#
DISCID=aa09e60c
DTITLE=Roger Waters - The Pros and Cons of Hitch Hiking
DYEAR=1984
DGENRE=Progressive Rock
TTITLE0=Apparently They Were Travelling Abroad
TTITLE1=Running Shoes
TTITLE2=Arabs With Knives And West German Skies
TTITLE3=For The First Time Today - Part 2
TTITLE4=Sexual Revolution
TTITLE5=The Remains Of Our Love
TTITLE6=Go Fishing
TTITLE7=The First Time Today - Part 1
TTITLE8=Dunroamin, Duncarin, Dunlivin
TTITLE9=The Pros And Cons Of Hitch Hiking, Part 10
TTITLE10=Every Stranger's Eyes
TTITLE11=The Moment Of Clarity
EXTD=YEAR: 1984
EXTT0=
EXTT1=
EXTT2=
EXTT3=
EXTT4=
EXTT5=
EXTT6=
EXTT7=
EXTT8=
EXTT9=
EXTT10=
EXTT11=
PLAYORDER=
